<?xml version="1.0" encoding="UTF-8"?><svg id="a" xmlns="http://www.w3.org/2000/svg" width="1080" height="1080" viewBox="0 0 1080 1080"><path d="M782.52,532.49c0,134.8-109.09,244.08-243.66,244.08s-243.66-109.28-243.66-244.08c0-80.09,41.78-157.25,106.69-201.89,14.16-9.74,66.41-44.63,136.97-42.19,108.93,3.77,243.66,95.89,243.66,244.08Z" fill="none" stroke="#fff" stroke-miterlimit="10" stroke-width="15"/><path d="M401.88,330.6l-29.99-13.64c-14.64-4.79-50.11-13.93-86.5,1.65-23.84,10.21-38.33,26.86-49.43,39.61-6.77,7.78-13.43,16.7-38.72,64.36-22.92,43.19-28.44,56.57-36.74,67.29-1.44,1.86-3.48,4.18-6.1,6.97-30.59,32.64-68.53,31-68.32,38.95.22,8,38.2,4.2,68.32,35.39,2.19,2.27,3.54,3.89,6.1,6.97,15.97,19.24,20.18,32.2,36.74,67.29,13.07,27.69,21.74,43.57,35.31,60.27.83,1.02,1.91,2.35,3.41,4.09,6.79,7.89,24.45,28.41,49.43,39.61,37.84,16.96,75.73,5.04,86.5,1.65,13.16-4.14,23.33-9.57,29.99-13.64" fill="none" stroke="#fff" stroke-miterlimit="10" stroke-width="15"/><path d="M674.01,739.42l20.83,9.72c14.6,4.93,49.97,14.42,86.51-.8,23.94-9.97,38.59-26.48,49.81-39.12,6.84-7.71,13.59-16.56,39.35-63.98,23.34-42.96,28.99-56.29,37.4-66.93,1.46-1.85,3.52-4.15,6.16-6.91,30.91-32.34,68.83-30.33,68.7-38.28-.14-8-38.15-4.58-67.97-36.06-2.17-2.29-3.5-3.93-6.03-7.03-15.78-19.4-19.87-32.4-36.08-67.65-12.79-27.82-21.31-43.78-34.72-60.62-.82-1.03-1.89-2.37-3.37-4.12-6.72-7.96-24.17-28.65-49.04-40.09-37.67-17.33-75.68-5.78-86.48-2.5-13.2,4.01-23.42,9.34-30.12,13.34" fill="none" stroke="#fff" stroke-miterlimit="10" stroke-width="15"/><polygon points="335.15 414.7 740.42 417.29 538.86 769.74 335.15 414.7" fill="none" stroke="#fff" stroke-miterlimit="10" stroke-width="15"/><circle cx="540" cy="540" r="500.8" fill="none" stroke="#fff" stroke-miterlimit="10" stroke-width="15"/></svg>