<?xml version="1.0" encoding="UTF-8"?><svg id="a" xmlns="http://www.w3.org/2000/svg" width="1080" height="1080" viewBox="0 0 1080 1080"><path d="M789.59,532.27c0,138.73-112.27,251.19-250.76,251.19s-250.76-112.46-250.76-251.19c0-82.42,43-161.83,109.8-207.77,14.57-10.02,68.34-45.93,140.97-43.42,112.11,3.88,250.76,98.69,250.76,251.19Z" fill="none" stroke="#020202" stroke-miterlimit="10" stroke-width="15"/><path d="M397.86,324.5l-30.86-14.04c-15.07-4.93-51.57-14.34-89.02,1.7-24.53,10.51-39.45,27.64-50.87,40.76-6.97,8-13.82,17.18-39.85,66.24-23.58,44.45-29.27,58.22-37.81,69.25-1.48,1.92-3.58,4.3-6.27,7.18-31.48,33.6-70.53,31.91-70.31,40.09.22,8.23,39.31,4.32,70.31,36.42,2.26,2.34,3.64,4,6.27,7.18,16.43,19.8,20.77,33.14,37.81,69.25,13.45,28.5,22.37,44.84,36.34,62.03.85,1.05,1.96,2.42,3.51,4.21,6.99,8.12,25.16,29.24,50.87,40.76,38.94,17.46,77.94,5.18,89.02,1.7,13.55-4.26,24.01-9.85,30.86-14.04" fill="none" stroke="#020202" stroke-miterlimit="10" stroke-width="15"/><path d="M677.91,745.24l21.44,10c15.02,5.07,51.43,14.84,89.03-.82,24.64-10.26,39.71-27.25,51.26-40.26,7.04-7.94,13.98-17.05,40.49-65.85,24.02-44.22,29.83-57.93,38.49-68.88,1.5-1.9,3.62-4.27,6.34-7.12,31.81-33.28,70.84-31.21,70.7-39.39-.14-8.23-39.27-4.71-69.95-37.11-2.23-2.36-3.6-4.04-6.2-7.24-16.24-19.96-20.45-33.34-37.13-69.62-13.17-28.63-21.93-45.05-35.73-62.38-.84-1.06-1.94-2.44-3.47-4.24-6.91-8.19-24.87-29.48-50.47-41.26-38.77-17.84-77.89-5.95-89-2.57-13.59,4.13-24.1,9.62-31,13.73" fill="none" stroke="#020202" stroke-miterlimit="10" stroke-width="15"/><polygon points="329.18 411.04 746.27 413.71 538.82 776.44 329.18 411.04" fill="none" stroke="#020202" stroke-miterlimit="10" stroke-width="15"/><circle cx="540" cy="540" r="515.4" fill="none" stroke="#020202" stroke-miterlimit="10" stroke-width="15"/></svg>