<?xml version="1.0" encoding="UTF-8"?><svg id="a" xmlns="http://www.w3.org/2000/svg" width="1080" height="1080" viewBox="0 0 1080 1080"><path d="M874.78,535.29c0,185.22-150.15,335.38-335.38,335.38s-335.38-150.15-335.38-335.38c0-110.05,57.51-216.07,146.85-277.41,19.48-13.38,91.4-61.32,188.53-57.97,149.94,5.18,335.38,131.76,335.38,335.38Z" fill="none" stroke="#fff" stroke-miterlimit="10" stroke-width="15"/><path d="M857.61,434.45l5.9.07c4.34-.54,14.39-2.64,19.86-12.76,3.59-6.63,3.74-13.99,3.87-19.63.07-3.44-.1-7.23-3.42-26.01-3.01-17.02-4.31-22.07-4.45-26.67-.02-.8,0-1.83.07-3.09.82-14.74,9.99-19.59,8.4-22.09-1.6-2.52-9.72,4.06-22.78-1.63-.95-.41-1.58-.74-2.77-1.36-7.45-3.88-10.94-7.42-21.59-16.27-8.41-6.99-13.5-10.83-19.9-14.24-.39-.21-.9-.48-1.59-.82-3.11-1.56-11.2-5.61-19.19-5.65-12.11-.06-18.64,9.11-20.5,11.71-2.27,3.18-3.59,6.35-4.36,8.59" fill="none" stroke="#fff" stroke-miterlimit="10" stroke-width="15"/><path d="M867.01,603.9l4.84,3.9c3.98,1.83,13.62,5.33,23.6-.38,6.54-3.74,10.55-9.92,13.63-14.65,1.88-2.88,3.72-6.19,10.8-23.91,6.41-16.05,7.96-21.03,10.27-25.01.4-.69.96-1.55,1.69-2.59,8.46-12.1,18.81-11.38,18.78-14.35-.03-2.98-10.41-1.67-18.51-13.39-.59-.85-.95-1.46-1.64-2.62-4.29-7.22-5.39-12.07-9.78-25.21-3.46-10.37-5.77-16.31-9.41-22.58-.22-.38-.51-.88-.92-1.54-1.82-2.96-6.57-10.67-13.34-14.91-10.26-6.43-20.64-2.08-23.59-.85-3.61,1.51-6.4,3.51-8.23,5.01" fill="none" stroke="#fff" stroke-miterlimit="10" stroke-width="15"/><path d="M788.78,759.98l5.6,9.82c2.66,3.47,9.55,11.08,21.05,10.68,7.53-.26,13.96-3.84,18.89-6.59,3-1.67,6.19-3.74,20.72-16.1,13.17-11.2,16.87-14.88,20.76-17.32.68-.42,1.58-.92,2.7-1.5,13.14-6.74,21.95-1.28,23.31-3.92,1.37-2.65-8.42-6.34-10.11-20.48-.12-1.03-.16-1.74-.22-3.08-.42-8.39.87-13.19,3.13-26.85,1.78-10.78,2.52-17.12,2.23-24.36-.02-.44-.04-1.02-.09-1.79-.23-3.47-.82-12.5-4.83-19.41-6.07-10.48-17.28-11.48-20.46-11.77-3.89-.35-7.3.12-9.62.58" fill="none" stroke="#fff" stroke-miterlimit="10" stroke-width="15"/><path d="M637.12,855.36l-.43,7.66c.35,4.36,2.01,14.49,11.87,20.4,6.46,3.88,13.81,4.36,19.44,4.73,3.43.23,7.22.22,26.14-2.27,17.14-2.26,22.24-3.33,26.84-3.27.8.01,1.82.08,3.08.21,14.69,1.47,19.13,10.84,21.7,9.37,2.59-1.48-3.63-9.89,2.63-22.69.46-.93.81-1.54,1.48-2.71,4.21-7.27,7.89-10.6,17.21-20.85,7.35-8.09,11.41-13.01,15.1-19.25.23-.38.52-.88.89-1.55,1.69-3.04,6.1-10.94,6.49-18.93.59-12.09-8.27-19.03-10.79-20.99-3.08-2.41-6.19-3.87-8.39-4.73" fill="none" stroke="#fff" stroke-miterlimit="10" stroke-width="15"/><path d="M464.1,861.82l-5.33,8.02c-1.91,3.94-5.61,13.51-.1,23.61,3.61,6.62,9.7,10.75,14.37,13.92,2.85,1.93,6.12,3.85,23.69,11.28,15.92,6.74,20.87,8.39,24.8,10.78.68.41,1.53,1,2.55,1.74,11.92,8.71,11,19.04,13.97,19.07,2.98.03,1.88-10.37,13.76-18.23.86-.57,1.48-.92,2.65-1.58,7.31-4.14,12.18-5.14,25.4-9.26,10.44-3.25,16.43-5.44,22.77-8.95.39-.21.89-.49,1.55-.88,3-1.76,10.8-6.35,15.18-13.03,6.64-10.13,2.5-20.6,1.33-23.57-1.44-3.64-6.18-10.31-7.64-12.18" fill="none" stroke="#fff" stroke-miterlimit="10" stroke-width="15"/><path d="M609.81,210.62l7.79-12.43c1.8-3.99,5.24-13.65-.54-23.6-3.79-6.52-9.99-10.49-14.73-13.54-2.9-1.86-6.22-3.68-23.98-10.64-16.09-6.31-21.08-7.83-25.07-10.11-.69-.4-1.56-.95-2.6-1.67-12.15-8.39-11.5-18.74-14.47-18.69-2.98.05-1.6,10.42-13.27,18.59-.85.6-1.46.96-2.61,1.65-7.19,4.33-12.03,5.47-25.14,9.94-10.35,3.53-16.28,5.87-22.52,9.56-.38.23-.88.52-1.53.92-2.95,1.84-10.62,6.63-14.83,13.43-6.37,10.3-1.95,20.66-.7,23.6,1.53,3.6,5.3,8.26,6.81,10.08" fill="none" stroke="#fff" stroke-miterlimit="10" stroke-width="15"/><path d="M760.71,290.89l10.43-6.82c3.47-2.67,11.06-9.58,10.64-21.07-.27-7.53-3.87-13.96-6.63-18.88-1.68-3-3.75-6.18-16.14-20.68-11.23-13.14-14.91-16.83-17.36-20.72-.43-.68-.92-1.57-1.5-2.7-6.77-13.12-1.33-21.95-3.97-23.3-2.66-1.36-6.32,8.43-20.46,10.16-1.03.13-1.74.16-3.08.23-8.39.43-13.19-.84-26.86-3.07-10.79-1.76-17.13-2.48-24.37-2.17-.44.02-1.02.04-1.78.1-3.47.24-12.5.85-19.4,4.87-10.47,6.09-11.45,17.3-11.72,20.49-.34,3.89.13,7.3.6,9.62" fill="none" stroke="#fff" stroke-miterlimit="10" stroke-width="15"/><path d="M218.27,634.6l-11.26-.33c-4.35.47-14.43,2.39-20.08,12.41-3.7,6.57-3.99,13.92-4.21,19.56-.13,3.44-.03,7.23,2.96,26.07,2.71,17.07,3.92,22.15,3.98,26.74,0,.8-.03,1.83-.13,3.09-1.08,14.73-10.33,19.41-8.79,21.94,1.55,2.55,9.79-3.89,22.75,2.03.94.43,1.56.77,2.75,1.41,7.38,4.01,10.81,7.61,21.3,16.65,8.28,7.13,13.31,11.06,19.65,14.58.39.22.89.49,1.57.85,3.08,1.61,11.1,5.8,19.09,5.98,12.11.27,18.8-8.78,20.7-11.35,2.32-3.14,4.54-8.23,5.35-10.45" fill="none" stroke="#fff" stroke-miterlimit="10" stroke-width="15"/><path d="M213.9,459.51l-4.83-3.19c-3.94-1.89-13.52-5.57-23.61-.03-6.61,3.63-10.73,9.73-13.88,14.41-1.93,2.85-3.83,6.13-11.22,23.72-6.69,15.94-8.33,20.89-10.71,24.83-.41.68-.99,1.53-1.73,2.56-8.68,11.95-19.01,11.05-19.03,14.02-.02,2.98,10.37,1.85,18.27,13.71.57.86.92,1.48,1.59,2.65,4.16,7.3,5.18,12.16,9.33,25.37,3.28,10.43,5.48,16.41,9.01,22.75.22.39.5.89.89,1.55,1.77,3,6.38,10.78,13.08,15.14,10.15,6.61,20.6,2.44,23.57,1.26,3.63-1.45,6.46-3.4,8.32-4.86" fill="none" stroke="#fff" stroke-miterlimit="10" stroke-width="15"/><path d="M294,306.56l-4.63-10.86c-2.6-3.52-9.36-11.24-20.86-11.05-7.54.12-14.03,3.59-19,6.25-3.03,1.62-6.25,3.63-21,15.73-13.36,10.97-17.12,14.58-21.06,16.95-.68.41-1.59.89-2.73,1.45-13.25,6.51-21.97.9-23.37,3.51-1.41,2.63,8.31,6.48,9.75,20.66.11,1.03.13,1.74.17,3.08.27,8.39-1.1,13.17-3.6,26.8-1.97,10.75-2.82,17.07-2.65,24.32.01.44.02,1.02.06,1.79.17,3.48.6,12.51,4.49,19.5,5.88,10.58,17.08,11.78,20.25,12.12,3.89.42,7.3.01,9.63-.42" fill="none" stroke="#fff" stroke-miterlimit="10" stroke-width="15"/><path d="M444.59,213.28l.37-5.02c-.28-4.37-1.75-14.52-11.51-20.61-6.4-3.99-13.73-4.6-19.35-5.07-3.43-.29-7.22-.35-26.17,1.81-17.18,1.95-22.3,2.94-26.89,2.79-.8-.03-1.82-.12-3.08-.26-14.66-1.73-18.93-11.18-21.53-9.75-2.61,1.44,3.45,9.96-3.03,22.64-.47.92-.84,1.53-1.53,2.68-4.33,7.19-8.08,10.46-17.57,20.54-7.49,7.96-11.64,12.81-15.44,18.98-.23.38-.53.87-.92,1.53-1.75,3.01-6.29,10.83-6.82,18.81-.81,12.08,7.94,19.17,10.42,21.18,3.04,2.46,8.49,4.56,10.68,5.47" fill="none" stroke="#fff" stroke-miterlimit="10" stroke-width="15"/><path d="M312.52,780.05l-8.44,4.65c-3.51,2.61-11.22,9.38-11.01,20.88.14,7.54,3.62,14.02,6.29,18.99,1.63,3.03,3.64,6.24,15.78,20.96,11,13.34,14.62,17.09,17,21.03.41.68.9,1.59,1.46,2.72,6.54,13.24.94,21.97,3.56,23.37,2.63,1.41,6.47-8.32,20.64-9.8,1.03-.11,1.74-.13,3.08-.18,8.39-.29,13.17,1.08,26.8,3.54,10.76,1.95,17.08,2.78,24.33,2.6.44-.01,1.02-.03,1.79-.06,3.48-.18,12.51-.63,19.49-4.53,10.57-5.91,11.75-17.1,12.08-20.28.41-3.89-.22-4.51-.65-6.84" fill="none" stroke="#fff" stroke-miterlimit="10" stroke-width="15"/><polygon points="266.64 371.27 804.41 374.72 537.22 850.44 266.64 371.27" fill="none" stroke="#fff" stroke-miterlimit="10" stroke-width="15"/><polygon points="549.85 218.6 804.41 699.91 260.54 687.75 549.85 218.6" fill="none" stroke="#fff" stroke-miterlimit="10" stroke-width="15"/><circle cx="540" cy="540" r="514.88" fill="none" stroke="#fff" stroke-miterlimit="10" stroke-width="15"/></svg>