<?xml version="1.0" encoding="UTF-8"?><svg id="a" xmlns="http://www.w3.org/2000/svg" width="1080" height="1080" viewBox="0 0 1080 1080"><path d="M789.73,780.33c1.93,13.15,2.72,33.94-8.02,53.76-7.08,13.07-16.5,20.79-21.9,24.98-56.11,43.5-125.04,51.93-185.54,103.33-2.84,2.41-8.56,15.83-16.45,15.29-5.29-.36-9.2-6.5-11.64-11.49" fill="none" stroke="#fff" stroke-miterlimit="10" stroke-width="15"/><path d="M323.05,783.46c-1.75,13.17-2.27,33.97,8.75,53.65,7.26,12.97,16.79,20.56,22.26,24.68,56.74,42.74,125.84,50.25,187.09,100.83,8.05,6.65,14,12.42,16.67,15.06" fill="none" stroke="#fff" stroke-miterlimit="10" stroke-width="15"/><path d="M888.33,539.41c0,183.27-148.57,331.85-331.85,331.85s-331.85-148.57-331.85-331.85c0-108.89,56.9-213.8,145.3-274.49,19.28-13.24,90.44-60.68,186.55-57.36,148.36,5.13,331.85,130.38,331.85,331.85Z" fill="none" stroke="#fff" stroke-miterlimit="10" stroke-width="15"/><path d="M791.62,312.57c13.16-1.84,33.96-2.49,53.71,8.38,13.02,7.17,20.68,16.64,24.83,22.07,43.12,56.4,51.09,125.39,102.08,186.23,2.4,2.86,15.77,8.67,15.17,16.55-.4,5.29-6.56,9.16-11.56,11.56" fill="none" stroke="#fff" stroke-miterlimit="10" stroke-width="15"/><path d="M791.62,779.26c13.16,1.84,33.96,2.49,53.71-8.39,13.02-7.17,20.68-16.65,24.83-22.09,43.12-56.45,51.09-125.5,102.08-186.4,6.7-8,12.51-13.92,15.17-16.57" fill="none" stroke="#fff" stroke-miterlimit="10" stroke-width="15"/><path d="M107.25,546.57c2.66-2.66,8.46-8.59,15.14-16.6,60.6-72.67,48.65-135.51,101.71-186.61,17.61-16.96,34.35-24.84,49.86-27.85,18.19-3.53,32.81,1.18,36.18.71,33.46-4.61,156.56,4.12,481.48-3.66l-1.89,467.76-465.16-3.59c-13.16,1.87-55.02,5.25-74.79-5.58-13.03-7.14-20.71-16.6-24.88-22.02-43.23-56.31-51.34-125.29-102.45-186.03-2.4-2.85-15.79-8.64-15.21-16.52.39-5.29,6.54-9.17,11.54-11.59" fill="none" stroke="#fff" stroke-miterlimit="10" stroke-width="15"/><path d="M555.6,119.54c-2.47-4.97-6.41-11.09-11.7-11.43-7.89-.5-13.54,12.94-16.37,15.37-60.23,51.72-129.12,60.51-185,104.3-5.38,4.22-14.76,11.99-21.77,25.09-10.63,19.88-9.73,40.67-7.74,53.81l-1.25,471.36" fill="none" stroke="#fff" stroke-miterlimit="10" stroke-width="15"/><path d="M779.67,301.11c1.69-13.18,2.09-33.99-9.03-53.61-7.33-12.93-16.9-20.48-22.39-24.57-56.96-42.44-126.1-49.59-187.61-99.85-8.08-6.6-14.06-12.34-16.75-14.98" fill="none" stroke="#fff" stroke-miterlimit="10" stroke-width="15"/><polygon points="358.42 402.05 752.01 402.05 557.81 712.69 358.42 402.05" fill="none" stroke="#fff" stroke-miterlimit="10" stroke-width="15"/><circle cx="540" cy="540" r="517.75" fill="none" stroke="#fff" stroke-miterlimit="10" stroke-width="15"/></svg>