<?xml version="1.0" encoding="UTF-8"?><svg id="a" xmlns="http://www.w3.org/2000/svg" width="1080" height="1080" viewBox="0 0 1080 1080"><path d="M868.47,540.55c0,183.17-148.49,331.65-331.65,331.65s-331.66-148.49-331.66-331.65c0-108.83,56.87-213.67,145.22-274.33,19.27-13.23,90.39-60.64,186.44-57.33,148.27,5.12,331.65,130.3,331.65,331.66Z" fill="none" stroke="#020202" stroke-miterlimit="10" stroke-width="28"/><path d="M851.49,440.83l5.83.07c4.29-.54,14.23-2.62,19.64-12.62,3.55-6.56,3.7-13.84,3.82-19.41.07-3.4-.1-7.15-3.38-25.72-2.98-16.83-4.26-21.83-4.4-26.37-.02-.79,0-1.81.07-3.05.81-14.58,9.88-19.37,8.31-21.85-1.58-2.49-9.62,4.02-22.53-1.61-.94-.41-1.56-.73-2.74-1.35-7.37-3.84-10.82-7.34-21.35-16.09-8.31-6.91-13.35-10.71-19.68-14.08-.39-.21-.89-.47-1.57-.81-3.08-1.54-11.08-5.54-18.98-5.58-11.97-.06-18.44,9.01-20.27,11.58-2.24,3.15-3.55,6.28-4.31,8.5" fill="none" stroke="#020202" stroke-miterlimit="10" stroke-width="28"/><path d="M860.78,608.4l4.79,3.85c3.93,1.81,13.47,5.27,23.34-.38,6.47-3.7,10.44-9.81,13.48-14.48,1.85-2.85,3.68-6.13,10.68-23.65,6.34-15.88,7.88-20.8,10.16-24.73.4-.68.95-1.53,1.67-2.56,8.37-11.96,18.6-11.26,18.57-14.19-.03-2.95-10.29-1.65-18.3-13.24-.58-.84-.94-1.44-1.62-2.59-4.24-7.14-5.33-11.93-9.67-24.93-3.42-10.25-5.71-16.13-9.31-22.33-.22-.38-.51-.87-.9-1.52-1.8-2.93-6.49-10.55-13.19-14.75-10.15-6.36-20.41-2.06-23.33-.84-3.57,1.49-6.33,3.47-8.14,4.95" fill="none" stroke="#020202" stroke-miterlimit="10" stroke-width="28"/><path d="M783.42,762.75l5.54,9.71c2.63,3.43,9.45,10.95,20.82,10.57,7.45-.25,13.81-3.8,18.68-6.51,2.97-1.66,6.12-3.7,20.49-15.92,13.02-11.08,16.68-14.71,20.53-17.13.67-.42,1.56-.91,2.67-1.48,12.99-6.67,21.71-1.27,23.05-3.87,1.35-2.62-8.33-6.27-10-20.25-.12-1.02-.16-1.72-.22-3.05-.41-8.29.86-13.04,3.09-26.56,1.76-10.67,2.49-16.93,2.2-24.09-.02-.44-.04-1.01-.09-1.77-.23-3.43-.81-12.36-4.78-19.2-6-10.36-17.09-11.35-20.24-11.64-3.85-.34-7.22.11-9.51.58" fill="none" stroke="#020202" stroke-miterlimit="10" stroke-width="28"/><path d="M633.45,857.07l-.42,7.57c.35,4.31,1.98,14.33,11.74,20.18,6.39,3.83,13.66,4.31,19.22,4.68,3.39.22,7.14.22,25.85-2.24,16.95-2.23,21.99-3.3,26.54-3.23.79.01,1.8.08,3.05.21,14.53,1.45,18.91,10.72,21.46,9.27,2.56-1.47-3.59-9.78,2.6-22.44.45-.92.8-1.53,1.47-2.68,4.16-7.19,7.81-10.48,17.02-20.62,7.27-8,11.28-12.86,14.93-19.04.22-.38.51-.87.88-1.53,1.67-3.01,6.03-10.82,6.42-18.72.59-11.96-8.18-18.81-10.67-20.76-3.05-2.38-6.12-3.82-8.3-4.68" fill="none" stroke="#020202" stroke-miterlimit="10" stroke-width="28"/><path d="M462.35,863.46l-5.27,7.94c-1.88,3.9-5.55,13.36-.09,23.34,3.57,6.54,9.59,10.63,14.21,13.77,2.81,1.91,6.05,3.81,23.42,11.16,15.74,6.66,20.63,8.3,24.52,10.66.68.41,1.51.98,2.52,1.72,11.79,8.61,10.88,18.83,13.81,18.86,2.95.03,1.86-10.25,13.61-18.03.85-.57,1.46-.91,2.62-1.57,7.23-4.09,12.04-5.08,25.12-9.16,10.32-3.22,16.25-5.38,22.52-8.85.38-.21.88-.49,1.54-.87,2.97-1.74,10.68-6.28,15.01-12.89,6.56-10.02,2.47-20.37,1.31-23.31-1.42-3.6-6.11-10.2-7.56-12.04" fill="none" stroke="#020202" stroke-miterlimit="10" stroke-width="28"/><path d="M606.44,219.49l7.71-12.3c1.78-3.94,5.19-13.5-.53-23.34-3.74-6.44-9.87-10.37-14.57-13.38-2.86-1.84-6.15-3.64-23.71-10.53-15.92-6.24-20.85-7.74-24.8-10-.69-.39-1.54-.94-2.57-1.65-12.02-8.29-11.38-18.53-14.31-18.48-2.95.05-1.59,10.3-13.12,18.39-.84.59-1.44.95-2.58,1.64-7.11,4.28-11.9,5.4-24.86,9.83-10.23,3.49-16.1,5.81-22.27,9.45-.38.22-.87.51-1.51.91-2.92,1.82-10.51,6.56-14.66,13.28-6.29,10.19-1.93,20.43-.69,23.33,1.52,3.56,5.24,8.17,6.73,9.97" fill="none" stroke="#020202" stroke-miterlimit="10" stroke-width="28"/><path d="M755.66,298.86l10.32-6.74c3.43-2.64,10.93-9.47,10.52-20.84-.27-7.45-3.83-13.8-6.55-18.67-1.66-2.97-3.71-6.11-15.97-20.45-11.1-13-14.75-16.65-17.17-20.49-.42-.67-.91-1.56-1.49-2.67-6.7-12.98-1.31-21.7-3.92-23.04-2.63-1.35-6.25,8.34-20.23,10.04-1.02.12-1.72.16-3.05.23-8.29.43-13.04-.83-26.56-3.04-10.67-1.74-16.94-2.45-24.1-2.15-.44.02-1.01.04-1.77.09-3.43.23-12.36.84-19.19,4.82-10.35,6.02-11.32,17.11-11.59,20.26-.34,3.85.13,7.22.6,9.51" fill="none" stroke="#020202" stroke-miterlimit="10" stroke-width="28"/><path d="M219.25,638.76l-11.14-.32c-4.3.46-14.27,2.37-19.86,12.27-3.66,6.49-3.95,13.77-4.16,19.34-.13,3.4-.03,7.15,2.93,25.78,2.68,16.88,3.88,21.9,3.94,26.44,0,.79-.03,1.8-.13,3.05-1.07,14.56-10.22,19.19-8.69,21.7,1.54,2.52,9.69-3.85,22.5,2,.93.43,1.55.76,2.72,1.4,7.3,3.97,10.69,7.52,21.06,16.46,8.19,7.05,13.16,10.94,19.43,14.42.38.21.88.49,1.55.84,3.05,1.59,10.98,5.74,18.88,5.92,11.97.27,18.59-8.68,20.47-11.22,2.3-3.11,4.49-8.14,5.29-10.34" fill="none" stroke="#020202" stroke-miterlimit="10" stroke-width="28"/><path d="M214.93,465.61l-4.78-3.16c-3.9-1.87-13.37-5.51-23.34-.03-6.53,3.59-10.61,9.62-13.73,14.25-1.9,2.82-3.79,6.06-11.09,23.46-6.62,15.76-8.24,20.66-10.59,24.55-.41.68-.98,1.52-1.71,2.53-8.58,11.82-18.8,10.93-18.82,13.86-.02,2.95,10.26,1.83,18.07,13.56.57.85.91,1.46,1.57,2.62,4.11,7.22,5.12,12.03,9.23,25.09,3.24,10.31,5.42,16.23,8.91,22.49.21.38.49.88.88,1.53,1.75,2.96,6.31,10.66,12.93,14.97,10.03,6.54,20.37,2.42,23.31,1.25,3.59-1.43,6.39-3.36,8.23-4.81" fill="none" stroke="#020202" stroke-miterlimit="10" stroke-width="28"/><path d="M294.13,314.36l-4.58-10.74c-2.57-3.48-9.25-11.12-20.63-10.93-7.45.12-13.87,3.55-18.79,6.18-3,1.6-6.18,3.59-20.76,15.56-13.21,10.85-16.93,14.42-20.83,16.76-.68.41-1.57.88-2.7,1.43-13.1,6.44-21.72.89-23.11,3.47-1.4,2.6,8.22,6.41,9.64,20.43.1,1.02.13,1.72.17,3.05.27,8.3-1.09,13.02-3.56,26.5-1.95,10.63-2.79,16.88-2.62,24.05,0,.44.02,1.01.06,1.77.17,3.44.6,12.37,4.44,19.28,5.82,10.47,16.89,11.65,20.03,11.99,3.84.41,7.22.01,9.52-.41" fill="none" stroke="#020202" stroke-miterlimit="10" stroke-width="28"/><path d="M443.05,222.11l.36-4.96c-.27-4.32-1.73-14.36-11.38-20.38-6.32-3.94-13.58-4.55-19.14-5.01-3.39-.28-7.14-.34-25.88,1.79-16.98,1.93-22.05,2.91-26.59,2.76-.79-.03-1.8-.11-3.04-.26-14.5-1.71-18.72-11.05-21.29-9.64-2.59,1.42,3.42,9.85-3,22.39-.47.91-.83,1.51-1.51,2.65-4.28,7.11-7.99,10.34-17.38,20.32-7.41,7.87-11.51,12.66-15.27,18.77-.23.37-.53.86-.91,1.52-1.73,2.98-6.22,10.71-6.74,18.6-.8,11.95,7.85,18.96,10.31,20.95,3,2.43,8.4,4.51,10.56,5.41" fill="none" stroke="#020202" stroke-miterlimit="10" stroke-width="28"/><path d="M312.45,782.6l-8.35,4.59c-3.47,2.58-11.1,9.28-10.89,20.65.14,7.45,3.58,13.87,6.22,18.78,1.61,3,3.6,6.17,15.6,20.73,10.87,13.19,14.45,16.9,16.81,20.79.41.68.89,1.57,1.44,2.69,6.47,13.09.93,21.72,3.52,23.11,2.6,1.39,6.39-8.23,20.41-9.69,1.02-.11,1.72-.13,3.05-.18,8.3-.28,13.03,1.06,26.51,3.5,10.64,1.92,16.89,2.75,24.06,2.57.44-.01,1.01-.03,1.77-.06,3.44-.17,12.37-.62,19.27-4.48,10.45-5.84,11.62-16.91,11.95-20.05.4-3.84-.21-4.46-.64-6.76" fill="none" stroke="#020202" stroke-miterlimit="10" stroke-width="28"/><polygon points="267.07 378.35 798.87 381.77 534.66 852.2 267.07 378.35" fill="none" stroke="#020202" stroke-miterlimit="10" stroke-width="28"/><polygon points="547.14 227.37 798.87 703.35 261.04 691.32 547.14 227.37" fill="none" stroke="#020202" stroke-miterlimit="10" stroke-width="28"/><circle cx="537.4" cy="545.21" r="509.16" fill="none" stroke="#020202" stroke-miterlimit="10" stroke-width="28"/></svg>