<?xml version="1.0" encoding="UTF-8"?><svg id="a" xmlns="http://www.w3.org/2000/svg" width="565.2" height="627.18" viewBox="0 0 565.2 627.18"><path d="M563.42,318.23c-5.9-1.82-10.15-6.16-16.01-8.77-56.44-25.05-171.14-3.02-207.03-60.14-2.22-3.53-8.05-14.3-7.13-17.95,37.61-33.4,89.17-20.94,128.86,1.82,5.04,2.89,19.74,14.78,22.81,15.62,2.56.7,5.25.04,4.78-3.16-.43-2.88-16.47-18.86-19.82-21.82-34.07-30.16-78.95-43.48-123.26-28.77-9.52,3.16-17.23,9.04-26.37,11.23-10.63-66.44,58.13-88.48,111.98-74.37,80.03,20.97,121.74,110.42,131.2,186.32Z" fill="none" stroke="#000" stroke-miterlimit="10" stroke-width="3"/><path d="M280.25,259.07l5.56-1.63c29.98-65.69,115.77-81.99,170.41-35.95l-29.14-10.85c-60.52-20.5-126.75,14.05-132.24,79.83-2.41,28.91-2.16,69.87-.27,99.03.37,5.77.29,20.65,7.63,17.11,5.93-2.87,15.75-13.19,22.33-17.68,18.12-12.36,38.14-22.71,59.7-27.47-29.97,20.48-61.39,39.54-85.57,67.19-1.8,33.38-.24,68.06,7.37,100.54,54.17,2.01,98.91,37.19,148.97,51.8,17.34,5.06,38.31,8.63,56.34,9.25,5.9.2,27.52-4.51,24.86,3.91-.72,2.27-15.24,4.06-18.31,4.07-97.7.54-164.73-81.78-265.19-58.77-22.85,5.24-39.88,16.17-60.5,24.29-41.89,16.49-100.94-26.23-143.12,8.87-9.73,8.09-12.12,17.51-18.64,26.15-3.89,5.15-8.77,2.79-7.09-3.83,2.95-11.63,21.33-29.85,31.8-35.45,33.28-17.8,70.6-2.53,104.31.26,28.81,2.38,46.37-12.64,72.38-21.96,6.83-2.45,13.72-4.64,20.98-5.42,6.98-54.59,6.88-110.36,1.58-165.1-4.15-45.86-44.24-76.35-80.3-98.87l-39.46-18.9c16.15,2.2,31.93,7.33,47.22,12.75,33.37,11.82,76.05,31.08,84.76,68.82,1.39,2.7,4.11-.08,4.78-1.64,2.06-4.8,1.27-42.47.81-50.34-2.55-44.01-13.55-78.91-32.21-118.15-4.23-8.9-10.06-17-13.9-26.09-.62-1.47-3.48-4.08-1.08-5.32,28.13,38.11,51.44,81.37,55.22,129.56Z" fill="none" stroke="#000" stroke-miterlimit="10" stroke-width="3"/><path d="M237.03,281.45l-27.71-14.67c-41.62-18.02-87.04-30.76-132.87-28.3-3.16.07-1.81,5.46-.82,6.04,1.51.87,23.96,2.76,28.94,3.83,39.78,8.56,79.64,31.33,110.04,57.9l-28.79,14.37C114.77,354.15,18.18,299.97,1.84,225.48c37.6-2.46,69.54-25.08,106.59-30.21,59.48-8.25,121.85,21.87,128.6,86.18Z" fill="none" stroke="#000" stroke-miterlimit="10" stroke-width="3"/><path d="M265.86,187.08c-6.42-15.9-15.45-31.96-24.96-46.24-5.58-8.37-32.11-43.96-39.09-47.29-2.1-1-4.12-1.02-6.36-.83-.29,1.77.13,3.22.71,4.87,4.28,12.28,24.73,39.74,32.16,54.23,5.96,11.62,11.04,24.98,16.73,36.84-1.74,1.38-37.39-12.66-42.02-14.75C142.54,146.53,117.7,59.52,147.47,1.55c1.28-.97,20.96,12.93,24.5,14.67,20.38,10.03,41.91,14.42,62.09,27.5,40.78,26.45,64.09,74.27,46.5,122.07-1.18,3.21-11.15,23.87-14.68,21.28Z" fill="none" stroke="#000" stroke-miterlimit="10" stroke-width="3"/><path d="M472.23,311.84c-1.45,44.37-30.33,84.16-72.74,97.63-20.9,6.64-51.05,10.19-69.64-2.46,11.27-7.65,21.72-16.97,33.1-24.48,6.18-4.08,44.76-24.14,45.29-26.72.79-3.89-4.59-4.11-7.11-4.03-26.64.88-58.83,18.07-80.87,32.04-5.82-41.49,27.32-68.35,65.18-74.77,30.53-5.18,56.95,6.85,86.79,2.79Z" fill="none" stroke="#000" stroke-miterlimit="10" stroke-width="3"/><path d="M424.23,612.57c.92,9.84-7.43,4.91-13.22,2.8-35.24-12.84-65.98-39.21-105.17-41.24v-4.75c43.52-1.96,77.76,32.83,118.39,43.19Z" fill="none" stroke="#000" stroke-miterlimit="10" stroke-width="3"/><path d="M437.04,617.35c5.68,2.13,33.46-.5,33.56,5.59-4.88,4.24-27.82,3.03-31.93-.04-2.27-1.69-1.73-3.07-1.63-5.55Z" fill="none" stroke="#000" stroke-miterlimit="10" stroke-width="3"/></svg>