<?xml version="1.0" encoding="UTF-8"?><svg id="a" xmlns="http://www.w3.org/2000/svg" width="1080" height="1080" viewBox="0 0 1080 1080"><path d="M791.69,782.22c1.95,13.25,2.74,34.21-8.08,54.19-7.13,13.17-16.63,20.95-22.08,25.18-56.55,43.84-126.03,52.34-187,104.15-2.86,2.43-8.63,15.95-16.58,15.41-5.33-.37-9.28-6.55-11.73-11.58" fill="none" stroke="#020202" stroke-miterlimit="10" stroke-width="15"/><path d="M321.34,785.38c-1.77,13.27-2.28,34.24,8.82,54.07,7.32,13.07,16.92,20.73,22.43,24.88,57.19,43.07,126.83,50.64,188.56,101.62,8.11,6.7,14.11,12.52,16.8,15.18" fill="none" stroke="#020202" stroke-miterlimit="10" stroke-width="15"/><path d="M891.07,539.4c0,184.72-149.74,334.46-334.46,334.46s-334.46-149.74-334.46-334.46c0-109.75,57.35-215.48,146.44-276.65,19.43-13.34,91.15-61.16,188.02-57.81,149.53,5.17,334.46,131.4,334.46,334.46Z" fill="none" stroke="#020202" stroke-miterlimit="10" stroke-width="15"/><path d="M793.6,310.78c13.26-1.86,34.23-2.51,54.13,8.44,13.12,7.22,20.84,16.77,25.03,22.25,43.46,56.84,51.49,126.37,102.89,187.7,2.41,2.88,15.89,8.74,15.29,16.68-.4,5.33-6.61,9.23-11.66,11.66" fill="none" stroke="#020202" stroke-miterlimit="10" stroke-width="15"/><path d="M793.6,781.14c13.26,1.86,34.23,2.51,54.13-8.45,13.12-7.23,20.84-16.78,25.03-22.27,43.46-56.9,51.49-126.49,102.89-187.87,6.75-8.06,12.61-14.02,15.29-16.7" fill="none" stroke="#020202" stroke-miterlimit="10" stroke-width="15"/><path d="M103.84,546.63c2.68-2.68,8.52-8.65,15.26-16.73,61.08-73.24,49.03-136.58,102.51-188.07,17.75-17.09,34.62-25.03,50.25-28.07,18.33-3.56,33.07,1.18,36.47.72,33.73-4.65,157.79,4.16,485.27-3.69l-1.91,471.44-468.82-3.62c-13.26,1.88-55.45,5.29-75.38-5.62-13.14-7.2-20.87-16.73-25.07-22.2-43.57-56.76-51.74-126.27-103.26-187.49-2.42-2.88-15.91-8.71-15.33-16.65.39-5.33,6.6-9.24,11.63-11.68" fill="none" stroke="#020202" stroke-miterlimit="10" stroke-width="15"/><path d="M555.72,116.24c-2.48-5.01-6.46-11.18-11.79-11.52-7.95-.5-13.65,13.04-16.5,15.49-60.71,52.12-130.14,60.99-186.46,105.12-5.43,4.25-14.88,12.08-21.95,25.29-10.72,20.04-9.81,40.99-7.8,54.23l-1.26,475.07" fill="none" stroke="#020202" stroke-miterlimit="10" stroke-width="15"/><path d="M781.56,299.23c1.7-13.28,2.1-34.25-9.1-54.03-7.39-13.03-17.03-20.64-22.56-24.76-57.41-42.78-127.1-49.98-189.09-100.63-8.14-6.66-14.17-12.44-16.88-15.09" fill="none" stroke="#020202" stroke-miterlimit="10" stroke-width="15"/><polygon points="356.99 400.97 753.68 400.97 557.95 714.05 356.99 400.97" fill="none" stroke="#020202" stroke-miterlimit="10" stroke-width="15"/><circle cx="540" cy="540" r="521.82" fill="none" stroke="#020202" stroke-miterlimit="10" stroke-width="15"/></svg>