<?xml version="1.0" encoding="UTF-8"?><svg id="a" xmlns="http://www.w3.org/2000/svg" width="205.49" height="206" viewBox="0 0 205.49 206"><path d="M93,16.75c-.37,2.6,0,6.68,0,9.5,0,.11-.86.92-.99.75-.73-1.93.46-6.77-2.22-6.51-3.33.33-9.67,9.51-10.03,13.01-3.47-5.37-4.78-8.99-11.68-10.22-.73-.13-1.67.29-2.68.12-3.77-.63-6.85-5-8.28-8.26-.59-1.33-.28-3.74-2.1-3.64-4.19,6.81-5.63,14.49-2.89,22.13,1.17,3.25,3.75,5.63,4.38,8.87-.63.69-4.46-3.71-4.77-4.52-.68-.19-.83.11-1.21.36-3.85,2.53-3.73,12.04-3.02,16.16-4.15-3.19-7.97-4.06-13.19-3.44-2.37.28-2.29,1.57-3.64,1.83-3.06.58-6.08-.14-8.82-1.47l-5.84-4.41v7.75c0,2.97,3.63,9.54,5.75,11.75,3.21,3.37,7.17,4.04,10.75,6.75.21,1.05-.46.82-1.21.71-1.97-.29-3.69-1.55-5.04-2.96-3.46,5.52,1.17,13.08,4.75,17.49h-7.75c-1.38,0-6.15,2.82-7.04,3.96-1.71,2.19.61,3.63-3.95,5.55-4.16,1.76-8.03.97-12.26,0,1.56,7.35,11.07,14.14,18.3,14.94,2.76.31,7.7-1.64,8.2,1.05h-5.49c-1.4,6.72,7.22,10.71,12.49,12.51l-5.96,3.78c-2.02,1.7-3.98,5.49-4.43,8.08-.13.76.37,1.58.2,2.64-.55,3.38-3.84,5.79-6.45,7.59l-5.85,2.39c6.4,4.93,16.15,5.96,23.64,2.9,2.81-1.15,4.85-3.96,7.86-3.89l-2.99,3.28-1.19.68-.24,1.2c.66,1.79,5.81,4.84,7.67,4.84h8.5c.2,0,.88-1.29.74.24-3.29,4.39-5.53,7.12-3.85,12.87.42,1.45,1.65,2.79,1.84,4.18.33,2.43-1.15,6.42-2.38,8.56l-3.6,4.65c8.01,1.54,17.33-2.03,22-8.75,1.74-2.5,2.33-5.76,4.75-7.75,1.13,2.72-1.71,4.39-2.75,6.49,6.44,1.95,12.01-1.27,16.99-4.99-.45,3.82.91,11.69,4.22,14.04.92.65,2.03.29,3.32,1.18,1.9,1.29,2.95,5.89,2.96,8.04.01,2.34-1.18,4.93-1.24,7.25,4.31-1.48,8.68-5.01,11.16-8.84.65-1,3.58-7.18,3.58-7.92v-9.5c0-.11.86-.92.99-.75l.5,6c6.57.52,10.45-7.18,12.25-12.5,2.88,4.85,5.29,9.12,11.34,10.17,2.45.42,3.35-.64,6.17,1.33,3.75,2.63,4.99,6.44,6.5,10.49,5.67-5.7,6.03-16.4,2.98-23.47-.65-1.51-3.76-5.93-3.72-6.77.03-.69.56-.69,1.24-.25,1.45.95,2.87,3.15,4,4.49,5.6-3.93,6.48-10.59,5.25-16.99,2.45.58,4.08,2.69,6.74,3.01,1.53.19,4.94.16,6.47-.06,1.9-.27,2.84-1.55,4.15-1.85,2.96-.68,7.34.8,9.82,2.48,1.55,1.05,2.51,3.08,4.33,3.42v-7.75c0-3.62-5.96-13.35-9.48-14.52-1.07-.36-2.21-.14-3.39-.61-1.77-.71-3.31-2.03-5.13-2.62l.25-.99c2.44-.39,3.95,1.55,6.01,2.44,3.5-4.99-1.39-12.78-4.76-16.94h7.25c1.51,0,6.82-3.07,7.48-4.52.4-.88.13-1.9.73-2.77,2.77-3.98,11.49-2.67,15.53-1.72-.55-7.7-11.07-14.8-18.31-15.43-3.04-.26-5.4.92-8.19-.07.58-1.95,5.49-.51,6-1,.4-6.79-6.93-10.71-12.5-12.5,4.22-3.05,9.55-5.52,10.28-11.47.17-1.37-.48-2.13.05-3.94,1.35-4.61,7.84-7.84,12.17-8.84-7.48-6.26-18.75-6.57-26.97-1.47-1.41.87-2.31,3.08-4.53,2.72.31-3.34,7.59-3.73,3.62-7.01-.37-.31-4.6-2.49-4.87-2.49h-10.25c.02-1.56,1.42-2.38,2.02-3.73,1.15-2.58,1.27-6.12.85-8.89-.37-2.39-2.39-4.3-2.26-6.5.27-4.39,3.36-8.89,6.39-11.87-7.76-1.72-17.58,1.99-22.22,8.53-.83,1.17-3.67,7.88-4.53,7.96-2.71-1.88,2.91-5.77,2.25-6.49-1.87-.09-4.57-.97-6.32-.97-2.95,0-8.9,3.99-11.18,5.97v-7.25c0-1.14-2.95-6.59-3.96-7.41-1.53-1.23-3.09.03-4.79-3.34-2.2-4.35-1.03-8.53-.25-13-6.5.96-14.12,10.6-15,16.75Z" fill="#fff"/><path d="M93,16.75c.88-6.15,8.5-15.79,15-16.75-.79,4.47-1.95,8.65.25,13,1.71,3.37,3.26,2.11,4.79,3.34,1.02.82,3.96,6.27,3.96,7.41v7.25c2.28-1.97,8.23-5.97,11.18-5.97,1.75,0,4.45.88,6.32.97.66.72-4.96,4.61-2.25,6.49.86-.08,3.7-6.79,4.53-7.96,4.64-6.53,14.46-10.24,22.22-8.53-3.03,2.98-6.12,7.48-6.39,11.87-.13,2.2,1.89,4.11,2.26,6.5.43,2.77.3,6.31-.85,8.89-.6,1.35-2.01,2.16-2.02,3.73h10.25c.27,0,4.5,2.18,4.87,2.49,3.97,3.28-3.31,3.67-3.62,7.01,2.22.36,3.12-1.84,4.53-2.72,8.21-5.1,19.48-4.79,26.97,1.47-4.33,1-10.81,4.22-12.17,8.84-.53,1.81.12,2.57-.05,3.94-.73,5.95-6.06,8.42-10.28,11.47,5.57,1.8,12.9,5.71,12.5,12.5-.5.48-5.41-.96-6,1,2.79.99,5.15-.19,8.19.07,7.23.63,17.76,7.73,18.31,15.43-4.05-.95-12.76-2.26-15.53,1.72-.6.87-.33,1.88-.73,2.77-.66,1.45-5.97,4.52-7.48,4.52h-7.25c3.37,4.16,8.26,11.94,4.76,16.94-2.06-.88-3.57-2.83-6.01-2.44l-.25.99c1.82.6,3.37,1.92,5.13,2.62,1.18.47,2.32.26,3.39.61,3.51,1.17,9.48,10.9,9.48,14.52v7.75c-1.83-.34-2.78-2.37-4.33-3.42-2.47-1.68-6.85-3.16-9.82-2.48-1.31.3-2.25,1.58-4.15,1.85-1.53.22-4.94.24-6.47.06-2.66-.32-4.28-2.43-6.74-3.01,1.22,6.4.35,13.06-5.25,16.99-1.13-1.34-2.55-3.54-4-4.49-.67-.44-1.2-.44-1.24.25-.04.84,3.07,5.27,3.72,6.77,3.05,7.07,2.69,17.77-2.98,23.47-1.51-4.05-2.75-7.87-6.5-10.49-2.82-1.97-3.72-.9-6.17-1.33-6.05-1.05-8.45-5.32-11.34-10.17-1.8,5.32-5.68,13.02-12.25,12.5l-.5-6c-.13-.17-.99.64-.99.75v9.5c0,.74-2.94,6.92-3.58,7.92-2.48,3.82-6.86,7.35-11.16,8.84.06-2.33,1.25-4.92,1.24-7.25-.01-2.14-1.06-6.75-2.96-8.04-1.3-.88-2.4-.53-3.32-1.18-3.31-2.34-4.67-10.22-4.22-14.04-4.99,3.73-10.55,6.95-16.99,4.99,1.04-2.1,3.88-3.78,2.75-6.49-2.42,1.99-3.01,5.24-4.75,7.75-4.67,6.72-13.98,10.29-22,8.75l3.6-4.65c1.24-2.14,2.71-6.13,2.38-8.56-.19-1.4-1.42-2.73-1.84-4.18-1.68-5.75.56-8.48,3.85-12.87.13-1.53-.54-.24-.74-.24h-8.5c-1.86,0-7.02-3.06-7.67-4.84l.24-1.2,1.19-.68,2.99-3.28c-3.01-.07-5.05,2.74-7.86,3.89-7.49,3.07-17.24,2.04-23.64-2.9l5.85-2.39c2.61-1.8,5.9-4.21,6.45-7.59.17-1.07-.33-1.89-.2-2.64.45-2.58,2.41-6.38,4.43-8.08l5.96-3.78c-5.27-1.8-13.89-5.79-12.49-12.5h5.49c-.5-2.71-5.43-.76-8.2-1.06-7.23-.8-16.73-7.59-18.3-14.94,4.22.98,8.1,1.77,12.26,0,4.56-1.93,2.23-3.37,3.95-5.55.89-1.14,5.66-3.96,7.04-3.96h7.75c-3.58-4.41-8.21-11.97-4.75-17.49,1.35,1.4,3.07,2.67,5.04,2.96.74.11,1.41.34,1.21-.71-3.58-2.71-7.54-3.39-10.75-6.75-2.11-2.22-5.75-8.78-5.75-11.75v-7.75l5.84,4.41c2.74,1.33,5.76,2.05,8.82,1.47,1.35-.25,1.27-1.55,3.64-1.83,5.23-.62,9.05.25,13.19,3.44-.71-4.12-.83-13.63,3.02-16.16.38-.25.53-.55,1.21-.36.31.81,4.14,5.21,4.77,4.52-.63-3.24-3.21-5.61-4.38-8.87-2.74-7.64-1.31-15.32,2.89-22.13,1.82-.1,1.51,2.3,2.1,3.64,1.43,3.26,4.51,7.63,8.28,8.26,1.02.17,1.96-.25,2.68-.12,6.89,1.23,8.2,4.85,11.68,10.22.36-3.5,6.7-12.68,10.03-13.01,2.69-.27,1.49,4.58,2.22,6.51.13.17.99-.64.99-.75,0-2.82-.37-6.9,0-9.5ZM98.4,48.65c-38.9,3.2-62.13,45.76-43.66,80.36,19.58,36.68,71.44,38.96,93.97,3.95,24.61-38.24-5.15-88.02-50.31-84.31Z" fill="#fff"/><path d="M98.4,48.65c45.16-3.71,74.92,46.06,50.31,84.31-22.53,35.01-74.39,32.73-93.97-3.95-18.47-34.6,4.76-77.16,43.66-80.36ZM99.4,54.15c-37.38,2.86-57.99,45.76-36.51,76.71,20.54,29.6,65.24,27.49,82.7-4.03,18.74-33.84-7.61-75.64-46.19-72.69Z" fill="#fff"/><path d="M99.4,54.15c38.58-2.95,64.93,38.85,46.19,72.69-17.46,31.52-62.16,33.63-82.7,4.03-21.48-30.96-.87-73.86,36.51-76.71Z" fill="none" stroke="#fff" stroke-miterlimit="10" stroke-width="3"/></svg>